<svg width="20" height="20" viewBox="0 0 20 20" fill="none" xmlns="http://www.w3.org/2000/svg">
<path fill-rule="evenodd" clip-rule="evenodd" d="M14.335 20C17.725 20 20 17.62 20 14.085V5.915C20 2.38 17.725 0 14.335 0H5.665C2.275 0 0 2.38 0 5.915V14.085C0 17.62 2.275 20 5.665 20H14.335ZM14.335 18.5H5.665C3.135 18.5 1.5 16.765 1.5 14.085V5.915C1.5 3.235 3.135 1.5 5.665 1.5H14.335C16.865 1.5 18.5 3.235 18.5 5.915V14.085C18.5 16.765 16.865 18.5 14.335 18.5Z" fill="#2C3341"/>
<path d="M6.74508 13.5549C6.64654 13.5554 6.5489 13.5362 6.45789 13.4984C6.36687 13.4606 6.28432 13.405 6.21508 13.3349L3.44508 10.5649C3.30584 10.4237 3.22778 10.2333 3.22778 10.0349C3.22778 9.83656 3.30584 9.64618 3.44508 9.50491L6.29008 6.66491C6.43225 6.53243 6.6203 6.46031 6.8146 6.46374C7.0089 6.46717 7.19429 6.54588 7.3317 6.68329C7.46911 6.82071 7.54783 7.00609 7.55125 7.20039C7.55468 7.39469 7.48256 7.58274 7.35008 7.72492L5.04008 10.0349L7.27508 12.2749C7.34522 12.3442 7.40092 12.4267 7.43893 12.5177C7.47694 12.6087 7.49651 12.7063 7.49651 12.8049C7.49651 12.9035 7.47694 13.0011 7.43893 13.0921C7.40092 13.1831 7.34522 13.2656 7.27508 13.3349C7.20636 13.4057 7.12391 13.4618 7.03277 13.4996C6.94164 13.5374 6.84374 13.5562 6.74508 13.5549Z" fill="#2C3341"/>
<path d="M13.1799 13.5549C13.0812 13.5562 12.9833 13.5374 12.8922 13.4996C12.8011 13.4618 12.7186 13.4057 12.6499 13.3349C12.5798 13.2656 12.5241 13.1831 12.486 13.0921C12.448 13.0011 12.4285 12.9035 12.4285 12.8049C12.4285 12.7063 12.448 12.6087 12.486 12.5177C12.5241 12.4267 12.5798 12.3442 12.6499 12.2749L14.9599 9.96491L12.7249 7.72492C12.5924 7.58274 12.5203 7.39469 12.5237 7.20039C12.5271 7.00609 12.6059 6.82071 12.7433 6.68329C12.8807 6.54588 13.0661 6.46717 13.2604 6.46374C13.4547 6.46031 13.6427 6.53243 13.7849 6.66491L16.5549 9.43492C16.6941 9.57618 16.7722 9.76656 16.7722 9.96491C16.7722 10.1633 16.6941 10.3537 16.5549 10.4949L13.7099 13.3349C13.6408 13.4053 13.5583 13.461 13.4673 13.4988C13.3762 13.5366 13.2785 13.5557 13.1799 13.5549Z" fill="#2C3341"/>
<path d="M8.50003 15.58C8.42366 15.5803 8.34772 15.5685 8.27503 15.545C8.18027 15.5165 8.0921 15.4694 8.0156 15.4066C7.9391 15.3438 7.87578 15.2665 7.8293 15.1791C7.78282 15.0917 7.7541 14.996 7.74478 14.8975C7.73547 14.799 7.74575 14.6996 7.77503 14.605L10.815 4.94502C10.8797 4.76158 11.0131 4.61044 11.1871 4.52347C11.361 4.43651 11.562 4.42054 11.7475 4.47892C11.933 4.53731 12.0886 4.66548 12.1815 4.8364C12.2743 5.00732 12.2971 5.20761 12.245 5.39502L9.20003 15.055C9.15167 15.204 9.05847 15.3344 8.93317 15.4284C8.80787 15.5223 8.65659 15.5753 8.50003 15.58Z" fill="#2C3341"/>
</svg>
