<svg width="22" height="22" viewBox="0 0 22 22" fill="none" xmlns="http://www.w3.org/2000/svg">
<path d="M8.784 2.21563C8.784 1.11163 9.672 0.223633 10.776 0.223633C11.88 0.223633 12.768 1.11163 12.768 2.21563V8.98363H19.584C20.688 8.98363 21.576 9.87163 21.576 10.9756C21.576 12.0796 20.688 12.9676 19.584 12.9916H12.768V19.7836C12.768 20.8876 11.88 21.7756 10.776 21.7756C9.672 21.7756 8.784 20.8876 8.784 19.7836V12.9916H1.992C0.888002 12.9676 0 12.0796 0 10.9756C0 10.4452 0.216001 9.94363 0.576001 9.55963C0.960001 9.19963 1.464 8.98363 1.992 8.98363H8.784V2.21563Z" fill="white"/>
</svg>
