<svg width="193" height="54" viewBox="0 0 193 54" fill="none" xmlns="http://www.w3.org/2000/svg">
<path d="M47.874 33.5416C46.9896 33.1626 46.035 33.5416 45.5297 34.2996L41.4026 32.587V32.5168C41.4026 32.194 41.2762 31.8851 41.0236 31.6886C42.1606 28.3195 41.9781 24.768 40.7709 21.6657L45.5297 19.7004C46.035 20.4584 46.9896 20.7813 47.874 20.4584C48.8285 20.0794 49.3339 18.9283 48.8847 17.9176C48.5057 16.963 47.3546 16.4577 46.3439 16.9069C45.4595 17.2859 45.0103 18.1703 45.2068 19.0687L40.448 21.034C39.6198 19.1248 38.3564 17.3561 36.7701 15.9523C36.8403 15.826 36.8403 15.7558 36.8403 15.6294C36.8403 15.0539 36.3911 14.6187 35.8296 14.6187C35.6331 14.6187 35.4506 14.6889 35.2541 14.8152C34.496 14.3099 33.7239 13.8607 32.9098 13.4817L34.875 8.77902C35.7594 8.97555 36.714 8.52634 37.0368 7.64196C37.4159 6.6874 36.9667 5.55034 36.0261 5.10114C35.0716 4.72212 33.9345 5.17133 33.4853 6.11185C33.1063 6.99623 33.4853 7.9508 34.2433 8.45616L32.2781 13.1588C29.1617 11.9516 25.8067 11.8252 22.6903 12.7798C22.4376 12.4008 21.9884 12.0779 21.4269 12.0779C21.3567 12.0779 21.2304 12.0779 21.1742 12.0779L19.6441 8.4C20.4021 7.89464 20.725 6.94008 20.4021 6.0557C20.0231 5.10113 18.872 4.59577 17.8613 5.04498C16.9067 5.424 16.4014 6.5751 16.8506 7.58582C17.2296 8.47019 18.114 8.9194 19.0124 8.72287L20.5425 12.4008C20.1635 12.6534 19.9108 13.1026 19.9108 13.608C19.9108 13.7343 19.9108 13.8045 19.981 13.9309C17.0612 15.461 14.773 17.9316 13.4394 20.9778L8.73678 19.0125C8.93331 18.1281 8.4841 17.1736 7.59973 16.8507C6.64516 16.4717 5.5081 16.9209 5.0589 17.8614C4.67988 18.816 5.12909 19.9531 6.06961 20.4023C6.95399 20.7813 7.90856 20.4023 8.41392 19.6442L13.1166 21.6095C12.4849 23.266 12.162 24.9084 12.1058 26.5648C11.783 26.6912 11.6005 26.9438 11.6005 27.3229C11.6005 27.6457 11.797 27.9546 12.1058 28.0809C12.2322 29.5408 12.555 30.9306 13.0604 32.3343L8.35776 34.2996C7.8524 33.5416 6.89784 33.2187 6.01346 33.5416C5.0589 33.9206 4.55354 35.0717 5.00275 36.0824C5.38176 37.037 6.53286 37.5423 7.54358 37.0931C8.42795 36.7141 8.87716 35.8297 8.68063 34.9313L13.3833 32.966C13.8886 34.1733 14.5905 35.2542 15.4187 36.2649C15.3486 36.3912 15.2924 36.5878 15.2924 36.7703C15.2924 37.3458 15.7416 37.781 16.3031 37.781C16.4295 37.781 16.626 37.7108 16.7523 37.6546C17.9596 38.7917 19.3493 39.7463 21.0058 40.4481L19.0405 45.1508C18.1561 44.9543 17.2015 45.4035 16.8787 46.2878C16.4996 47.2424 16.9489 48.3795 17.8894 48.8287C18.844 49.2077 19.981 48.7585 20.4302 47.818C20.8092 46.9336 20.4302 45.979 19.6722 45.4736L21.6375 40.771C23.3501 41.4729 25.189 41.7817 26.9718 41.7817C28.8107 41.7817 30.6497 41.4027 32.3061 40.771L34.2714 45.5298C33.5134 46.0352 33.1905 46.9897 33.5134 47.8741C33.8924 48.8287 35.0435 49.334 36.0542 48.8848C37.0088 48.5058 37.5141 47.3547 37.0649 46.344C36.6859 45.4596 35.8015 45.0104 34.9031 45.2069L32.9378 40.4481C35.984 39.1146 38.6512 36.7001 40.2374 33.5275C40.3076 33.5275 40.3076 33.5275 40.3638 33.5275C40.6867 33.5275 40.9393 33.4012 41.1218 33.1485L45.2489 34.8611C45.0524 35.7455 45.5016 36.7001 46.386 37.0229C47.3405 37.402 48.4776 36.9527 48.9268 36.0122C49.3339 35.0576 48.8285 33.9767 47.874 33.5416ZM21.6515 15.1241C21.7217 15.1241 21.7217 15.1241 21.6515 15.1241L24.445 21.7218L21.5953 23.3081C21.3988 23.1115 21.2163 22.9852 20.9636 22.8589L21.6515 15.1241ZM26.3541 27.6317L25.8488 28.8951L25.0907 28.137L26.3541 27.6317ZM24.5152 27.6317L22.0445 25.2874L26.1015 27L24.5152 27.6317ZM26.9858 27.8844L28.4458 31.3798L26.3541 29.4145L26.9858 27.8844ZM28.0667 31.9553C27.9404 32.208 27.8702 32.4607 27.8702 32.7133C27.8702 32.7835 27.8702 32.9099 27.8702 32.966L24.2485 34.5523L26.0874 30.0462L28.0667 31.9553ZM29.4003 31.1832C29.3301 31.1832 29.2038 31.1832 29.1476 31.1832L27.6877 27.6317L30.9304 28.9653L29.7934 31.2534C29.5828 31.1832 29.5267 31.1832 29.4003 31.1832ZM27.8702 27L32.8817 24.9084L31.0989 28.3336L27.8702 27ZM33.0782 26.1156L32.6992 29.0355L31.7446 28.6565L33.0782 26.1156ZM33.9064 25.2172C33.9766 25.2172 33.9766 25.2172 34.0328 25.147L39.2969 31.6886L33.4572 29.2741L33.9064 25.2172ZM32.643 24.2767L27.6316 26.3683L30.1022 20.4023C30.1724 20.4023 30.2987 20.4023 30.4251 20.4023C30.6216 20.4023 30.8041 20.3321 30.9304 20.2759L32.8957 23.5186C32.7694 23.7573 32.643 24.01 32.643 24.2767ZM29.4565 20.1496L26.9858 26.1156L25.2732 22.0587L29.1476 19.9671C29.274 20.0232 29.3301 20.0794 29.4565 20.1496ZM26.3541 26.3683L21.9744 24.5294C21.9744 24.4592 21.9744 24.3328 21.9744 24.2767C21.9744 24.1503 21.9744 24.024 21.9042 23.8977L24.6977 22.3675L26.3541 26.3683ZM20.5144 25.7928H20.5846L21.469 28.9091L18.9984 29.9198L20.3881 25.7928C20.3881 25.7928 20.4442 25.7928 20.5144 25.7928ZM21.2163 25.6103C21.2865 25.6103 21.2865 25.5401 21.3427 25.5401L23.8835 27.9546L22.1007 28.6565L21.2163 25.6103ZM24.3889 28.4599L25.5961 29.597L23.687 34.1733L22.2972 29.3443L24.3889 28.4599ZM28.1229 33.5977C28.3756 33.9767 28.8248 34.2294 29.3301 34.2294C29.4003 34.2294 29.5267 34.2294 29.5828 34.2294L31.2393 38.16L24.445 35.2401L28.1229 33.5977ZM30.2285 33.9206C30.5514 33.7241 30.7339 33.345 30.8602 32.966H32.25L31.6744 37.416L30.2285 33.9206ZM30.8602 32.3343C30.7901 32.0115 30.6076 31.7588 30.3549 31.5061L31.4919 29.218L32.629 29.6672L32.3061 32.2641L30.8602 32.3343ZM33.3309 29.99L38.7214 32.208L33.008 32.2782L33.3309 29.99ZM34.5381 24.782C34.6645 24.6557 34.6645 24.4592 34.6645 24.2767V24.2065L37.458 23.0694L39.5496 31.1271L34.5381 24.782ZM34.4118 23.5748C34.3416 23.5046 34.2854 23.4485 34.2153 23.3783L35.8717 16.963L37.2615 22.3535L34.4118 23.5748ZM35.24 16.3313C35.2962 16.4015 35.2962 16.4015 35.24 16.3313L33.5274 23.1817C33.4572 23.1817 33.4572 23.1817 33.4011 23.1817L31.4358 19.939C31.7587 19.6162 31.9411 19.2371 31.9411 18.802C31.9411 18.6054 31.871 18.4791 31.871 18.2966L35.24 16.3313ZM28.8248 19.3214L25.0205 21.413L22.2972 14.8714C22.3674 14.8012 22.4236 14.7451 22.4938 14.6749L28.7827 18.3528C28.7125 18.4791 28.7125 18.6756 28.7125 18.8581C28.7686 18.9985 28.8248 19.1248 28.8248 19.3214ZM20.9496 15.0679C20.9496 15.0679 21.0198 15.0679 20.9496 15.0679L20.2477 22.8168C19.7985 22.8869 19.4897 23.0694 19.237 23.4485L16.3172 22.2412L20.9496 15.0679ZM18.9843 24.01C18.9843 24.0801 18.9843 24.2065 18.9843 24.2626C18.9843 24.3328 18.9843 24.389 18.9843 24.4592L13.3973 26.621L15.9381 22.6904L18.9843 24.01ZM13.3412 27.4492L19.1809 25.1611C19.3072 25.3576 19.4335 25.4839 19.6301 25.6103L18.0999 30.3129L17.4683 30.5656L13.2148 27.5755C13.3412 27.5053 13.3412 27.4492 13.3412 27.4492ZM18.7316 30.8042L21.6515 29.597L23.0412 34.3558L18.5913 31.2394L18.7316 30.8042ZM22.8026 35.0015L17.2858 36.2087C17.2156 36.0824 17.1594 36.0122 17.0331 35.9561L18.3667 31.8992L22.8026 35.0015ZM22.9851 35.7034L22.4095 37.2335L18.3526 36.7281L22.9851 35.7034ZM23.6168 36.0122C23.8133 36.0122 23.9958 35.942 24.1221 35.8157L29.5126 38.16L23.0974 37.2756L23.6168 36.0122ZM32.3202 37.9775L32.9519 32.966L39.2969 32.8397L32.3202 37.9775ZM40.3778 31.3798L38.0897 22.7466L40.1251 21.9183C41.2762 24.8382 41.4587 28.2072 40.3778 31.3798ZM39.8725 21.2866L37.9072 22.1149L36.4473 16.598C37.9633 17.8614 39.1144 19.5038 39.8725 21.2866ZM34.9171 15.3206C34.9171 15.3908 34.847 15.5171 34.847 15.5733C34.847 15.6294 34.847 15.6996 34.847 15.7698L31.4779 17.7351C31.4077 17.6649 31.2814 17.5386 31.2252 17.4824L32.615 14.0572C33.5274 14.4362 34.2293 14.8714 34.9171 15.3206ZM26.9858 12.85C28.6984 12.85 30.411 13.1728 32.0675 13.8045L30.6778 17.2297C30.6076 17.2297 30.4812 17.2297 30.3549 17.2297C29.9057 17.2297 29.4705 17.4263 29.1476 17.7351L22.8587 14.0572C22.9289 13.9309 22.9289 13.8045 22.9289 13.608C22.9289 13.5378 22.9289 13.4817 22.9289 13.4115C24.2625 13.1026 25.6522 12.85 26.9858 12.85ZM20.3179 14.5626C20.3179 14.6328 20.3881 14.6328 20.3881 14.6889L15.6855 21.9324L14.0992 21.3007C15.3766 18.3668 17.5244 16.0786 20.3179 14.5626ZM15.3064 22.4939L12.9621 26.1718C13.0323 24.7118 13.3412 23.3221 13.9167 21.9183L15.3064 22.4939ZM12.9621 28.137L16.8366 30.8604L13.8465 32.0676C13.3412 30.8042 13.0183 29.4706 12.9621 28.137ZM17.4683 31.3096L17.7911 31.5061L16.4014 35.7595C16.275 35.7595 16.1487 35.7595 16.0785 35.8297C15.3205 34.8752 14.6888 33.8644 14.1694 32.7133L17.4683 31.3096ZM17.3419 37.2195L22.1709 37.8512L21.3427 39.8866C19.8125 39.2549 18.479 38.3565 17.3419 37.2195ZM21.9042 40.1393L22.7886 37.9214L30.9725 38.9321C31.0989 39.3111 31.4218 39.5638 31.8008 39.5638L31.9973 40.0691C28.895 41.3465 25.3434 41.4729 21.9042 40.1393ZM32.6992 39.8866L32.5027 39.3813C32.629 39.2549 32.7553 39.0022 32.7553 38.7496C32.7553 38.6794 32.7553 38.6232 32.7553 38.5531L39.4794 33.5977C37.9633 36.4614 35.5629 38.6232 32.6992 39.8866Z" fill="white"/>
<path d="M21.5955 5.03095C21.7219 5.22748 21.7921 5.35382 21.8482 5.53631C21.9184 5.73284 21.9746 5.85918 21.9746 6.04167L25.849 3.19201C26.5509 2.68666 27.4352 2.68666 28.1371 3.19201L32.0115 6.04167C32.0817 5.84514 32.0817 5.7188 32.1379 5.53631C32.2081 5.33978 32.3344 5.15729 32.3906 5.03095C32.7134 4.52559 33.0924 4.14658 33.5978 3.8939L29.6672 0.974045C27.8844 -0.359539 25.9894 -0.28935 24.2768 0.974045L20.3462 3.8939C20.8937 4.14658 21.2727 4.52559 21.5955 5.03095Z" fill="white"/>
<path d="M32.4466 48.969C32.3203 48.7724 32.2501 48.6461 32.1939 48.4636C32.1237 48.2671 32.0676 48.1407 32.0676 47.9583L28.1932 50.8079C27.4913 51.3133 26.6069 51.3133 25.905 50.8079L22.0306 47.9583C21.9604 48.1548 21.9604 48.2811 21.9043 48.4636C21.8341 48.6601 21.7077 48.8426 21.6516 48.969C21.3287 49.4743 20.9497 49.8533 20.4443 50.106L24.3749 53.0259C26.1577 54.3595 28.0528 54.2893 29.7654 53.0259L33.696 50.106C33.1485 49.8533 32.6993 49.4743 32.4466 48.969Z" fill="white"/>
<path d="M7.62777 15.2504C7.8243 15.3206 8.00679 15.3767 8.20332 15.4469C8.39984 15.5171 8.52618 15.5732 8.65252 15.6996L9.35441 10.9408C9.48075 10.1126 10.1124 9.48087 10.9407 9.35453L15.6995 8.65264C15.6293 8.5263 15.5029 8.32977 15.4468 8.20343C15.3766 8.0069 15.3204 7.82441 15.2503 7.62789C15.1239 7.05234 15.1239 6.49083 15.3204 5.97144L10.4915 6.67332C8.32965 6.99619 6.99607 8.38592 6.68724 10.4775L5.98535 15.3065C6.47667 15.1942 7.05222 15.124 7.62777 15.2504Z" fill="white"/>
<path d="M46.3442 38.6794C46.1476 38.6092 45.9651 38.5531 45.7686 38.4829C45.5721 38.4127 45.4457 38.3566 45.3194 38.2302L44.6175 42.989C44.4912 43.8172 43.8595 44.4489 43.0312 44.5753L38.2725 45.2772C38.3426 45.4035 38.469 45.6 38.5251 45.7264C38.5953 45.9229 38.6515 46.1054 38.7217 46.3019C38.848 46.8775 38.848 47.439 38.6515 47.9584L43.4805 47.2565C45.6423 46.9336 46.9758 45.5439 47.2847 43.4523L47.9866 38.6233C47.4952 38.8058 46.9197 38.8058 46.3442 38.6794Z" fill="white"/>
<path d="M5.53631 32.1378C5.73284 32.0676 5.85917 32.0114 6.04166 32.0114L3.192 28.137C2.68665 27.4351 2.68665 26.5507 3.192 25.8489L6.04166 21.9744C5.84513 21.9043 5.7188 21.9043 5.53631 21.8481C5.33978 21.7779 5.15729 21.6516 5.03095 21.5954C4.52559 21.2726 4.14657 20.8935 3.89389 20.3882L0.974045 24.3187C-0.359539 26.1015 -0.28935 27.9966 0.974045 29.7092L3.89389 33.6398C4.14657 33.1344 4.59578 32.7554 5.03095 32.4325C5.21344 32.2641 5.33978 32.2079 5.53631 32.1378Z" fill="white"/>
<path d="M53.012 24.2768L50.0921 20.3462C49.8394 20.8515 49.3902 21.2306 48.9551 21.5534C48.7585 21.6798 48.6322 21.75 48.4497 21.8061C48.2532 21.8763 48.1268 21.9325 47.9443 21.9325L50.794 25.8069C51.2994 26.5088 51.2994 27.3931 50.794 28.095L47.9443 31.9694C48.1409 32.0396 48.2672 32.0396 48.4497 32.0958C48.6462 32.166 48.8287 32.2923 48.9551 32.3485C49.4604 32.6713 49.8394 33.0503 50.0921 33.5557L53.012 29.6251C54.3455 27.8844 54.2894 25.9894 53.012 24.2768Z" fill="white"/>
<path d="M9.39677 43.0029L8.69488 38.2441C8.56854 38.3143 8.37201 38.4407 8.24567 38.4968C8.04914 38.567 7.86665 38.6232 7.67012 38.6934C7.09458 38.8197 6.53307 38.8197 6.01367 38.6232L6.71556 43.4521C7.03843 45.6139 8.42816 46.9475 10.5198 47.2564L15.3488 47.9583C15.2224 47.3827 15.1522 46.8212 15.2786 46.3018C15.3488 46.1053 15.4049 45.9228 15.4751 45.7263C15.5453 45.5297 15.6014 45.4034 15.7278 45.277L10.969 44.5752C10.1688 44.519 9.46695 43.8171 9.39677 43.0029Z" fill="white"/>
<path d="M44.6313 10.9409L45.3332 15.6997C45.4595 15.6295 45.6561 15.5032 45.7824 15.447C45.9789 15.3768 46.1614 15.3207 46.358 15.2505C46.9335 15.1242 47.495 15.1242 48.0144 15.3207L47.3125 10.4917C46.9897 8.3299 45.5999 6.99631 43.5083 6.68748L38.6793 5.9856C38.8057 6.56114 38.8758 7.12265 38.7495 7.64205C38.6793 7.83857 38.6232 8.02107 38.553 8.2176C38.4828 8.41413 38.4266 8.54047 38.3003 8.66681L43.0591 9.36869C43.8733 9.481 44.505 10.1127 44.6313 10.9409Z" fill="white"/>
<path d="M70.447 17.7773H69.1976L68.58 16.0226H65.8707L65.2811 17.7773H64.0317L66.6147 10.8848H67.9061L70.447 17.7773ZM68.2711 15.0961L67.3166 12.3447C67.2885 12.2605 67.2604 12.106 67.2323 11.9095H67.2183C67.1902 12.092 67.1622 12.2324 67.12 12.3447L66.1795 15.0961H68.2711Z" fill="white"/>
<path d="M76.3008 11.3902L72.5246 16.8088H76.2587V17.7774H70.9243V17.258L74.7145 11.8675H71.2191V10.8989H76.3008V11.3902V11.3902Z" fill="white"/>
<path d="M76.9185 13.8467H82.1545C82.0984 13.201 81.8597 12.6956 81.4386 12.3166C81.0175 11.9376 80.47 11.7551 79.8243 11.7551C79.0662 11.7551 78.4205 11.9516 77.873 12.3306V11.2778C78.4486 10.9409 79.1364 10.7725 79.9506 10.7725C81.0175 10.7725 81.8597 11.0813 82.4634 11.713C83.067 12.3306 83.3758 13.201 83.3758 14.2959C83.3758 15.3347 83.067 16.191 82.4634 16.8789C81.8597 17.5527 81.0456 17.9036 80.0348 17.9036C79.0382 17.9036 78.2661 17.5667 77.7186 16.8789C77.1992 16.177 76.9185 15.1803 76.9185 13.8467ZM82.1545 14.8013H78.1538C78.1678 15.447 78.3503 15.9664 78.6872 16.3454C79.0241 16.7245 79.4874 16.921 80.0769 16.921C80.6665 16.921 81.1438 16.7245 81.5228 16.3454C81.8878 15.9664 82.0984 15.447 82.1545 14.8013Z" fill="white"/>
<path d="M89.9593 17.7773H88.6258L87.5308 15.9383C87.4325 15.7699 87.3343 15.6295 87.236 15.5032C87.1378 15.3768 87.0395 15.2786 86.9412 15.2084C86.843 15.1382 86.7307 15.082 86.6184 15.0399C86.5061 14.9978 86.3797 14.9838 86.2253 14.9838H85.7621V17.7773H84.625V10.8848H86.8851C87.2079 10.8848 87.5027 10.9269 87.7835 10.9971C88.0502 11.0673 88.2889 11.1936 88.4994 11.348C88.6959 11.5024 88.8644 11.6989 88.9767 11.9236C89.089 12.1622 89.1452 12.4289 89.1452 12.7377C89.1452 12.9764 89.103 13.201 89.0329 13.4116C88.9627 13.6081 88.8644 13.7906 88.724 13.959C88.5977 14.1134 88.4292 14.2538 88.2467 14.3661C88.0643 14.4784 87.8537 14.5626 87.615 14.6188V14.6328C87.7414 14.703 87.8537 14.7872 87.9379 14.8715C88.0362 14.9557 88.1204 15.0399 88.2046 15.1382C88.2888 15.2224 88.3731 15.3347 88.4573 15.447C88.5415 15.5593 88.6258 15.6997 88.724 15.8401L89.9593 17.7773ZM85.7761 11.8253V14.0573H86.7307C86.9131 14.0573 87.0676 14.0292 87.222 13.9731C87.3764 13.9169 87.5027 13.8467 87.615 13.7344C87.7273 13.6362 87.8116 13.5098 87.8677 13.3554C87.9239 13.215 87.966 13.0466 87.966 12.8641C87.966 12.5412 87.8677 12.2745 87.6572 12.092C87.4466 11.9095 87.1518 11.8113 86.7587 11.8113H85.7761V11.8253Z" fill="white"/>
<path d="M90.7598 17.7773V10.8848H92.9497C93.6094 10.8848 94.1429 11.0251 94.5359 11.3199C94.929 11.6147 95.1255 11.9937 95.1255 12.457C95.1255 12.85 95.0132 13.187 94.7886 13.4817C94.564 13.7765 94.2552 13.9731 93.8761 14.0994V14.1134C94.3534 14.1696 94.7324 14.338 95.0132 14.6328C95.294 14.9276 95.4343 15.3207 95.4343 15.7839C95.4343 16.3735 95.1957 16.8508 94.7324 17.2158C94.2692 17.5808 93.6796 17.7633 92.9777 17.7633H90.7598V17.7773ZM91.8968 11.8113V13.7765H92.6408C93.0339 13.7765 93.3427 13.6783 93.5814 13.4958C93.806 13.3133 93.9183 13.0466 93.9183 12.6956C93.9183 12.106 93.5252 11.8113 92.7391 11.8113H91.8968ZM91.8968 14.689V16.8648H92.8654C93.2866 16.8648 93.6235 16.7666 93.8481 16.57C94.0867 16.3735 94.199 16.1068 94.199 15.7559C94.199 15.0399 93.7077 14.689 92.711 14.689H91.8968Z" fill="white"/>
<path d="M102.355 17.7773H101.105L100.488 16.0226H97.7784L97.1888 17.7773H95.9395L98.5224 10.8848H99.8139L102.355 17.7773ZM100.193 15.0961L99.2383 12.3447C99.2102 12.2605 99.1822 12.106 99.1541 11.9095H99.1401C99.112 12.092 99.0839 12.2324 99.0418 12.3447L98.1013 15.0961H100.193Z" fill="white"/>
<path d="M107.366 10.8988L105.106 15.2786V17.7773H103.969V15.2926L101.765 10.8848H103.071L104.418 13.8327C104.432 13.8748 104.488 14.0011 104.559 14.2257H104.573C104.601 14.1275 104.657 13.9871 104.727 13.8327L106.145 10.8848H107.366V10.8988Z" fill="white"/>
<path d="M112.813 17.4967C112.293 17.7634 111.648 17.9038 110.876 17.9038C109.879 17.9038 109.079 17.5949 108.475 16.9632C107.871 16.3315 107.577 15.5033 107.577 14.4785C107.577 13.3836 107.914 12.4852 108.587 11.8114C109.261 11.1376 110.117 10.7866 111.156 10.7866C111.816 10.7866 112.378 10.8849 112.813 11.0674V12.2044C112.349 11.9237 111.83 11.7973 111.283 11.7973C110.539 11.7973 109.935 12.036 109.472 12.5133C109.009 12.9905 108.784 13.6222 108.784 14.4224C108.784 15.1804 108.994 15.7841 109.43 16.2333C109.865 16.6825 110.426 16.9071 111.128 16.9071C111.774 16.9071 112.335 16.7527 112.813 16.4438V17.4967V17.4967Z" fill="white"/>
<path d="M119.776 17.7773H118.526L117.909 16.0226H115.199L114.61 17.7773H113.36L115.943 10.8848H117.235L119.776 17.7773ZM117.6 15.0961L116.645 12.3447C116.617 12.2605 116.589 12.106 116.561 11.9095H116.547C116.519 12.092 116.491 12.2324 116.449 12.3447L115.508 15.0961H117.6Z" fill="white"/>
<path d="M126.556 17.7773H125.307L122.022 12.7097C121.938 12.5833 121.867 12.443 121.811 12.3166H121.783C121.811 12.457 121.825 12.7799 121.825 13.2571V17.7773H120.716V10.8848H122.05L125.222 15.826C125.363 16.0366 125.447 16.177 125.475 16.2472H125.489C125.461 16.0647 125.447 15.7559 125.447 15.3207V10.8848H126.542V17.7773H126.556Z" fill="white"/>
<path d="M136.298 17.7773H134.965L133.87 15.9383C133.771 15.7699 133.673 15.6295 133.575 15.5032C133.477 15.3768 133.378 15.2786 133.28 15.2084C133.182 15.1382 133.07 15.082 132.957 15.0399C132.845 14.9978 132.719 14.9838 132.564 14.9838H132.101V17.7773H130.964V10.8848H133.224C133.547 10.8848 133.842 10.9269 134.122 10.9971C134.389 11.0673 134.628 11.1936 134.838 11.348C135.035 11.5024 135.203 11.6989 135.316 11.9236C135.428 12.1622 135.484 12.4289 135.484 12.7377C135.484 12.9764 135.442 13.201 135.372 13.4116C135.302 13.6081 135.203 13.7906 135.063 13.959C134.937 14.1134 134.768 14.2538 134.586 14.3661C134.403 14.4784 134.193 14.5626 133.954 14.6188V14.6328C134.08 14.703 134.193 14.7872 134.277 14.8715C134.375 14.9557 134.459 15.0399 134.543 15.1382C134.628 15.2224 134.712 15.3347 134.796 15.447C134.88 15.5593 134.965 15.6997 135.063 15.8401L136.298 17.7773ZM132.115 11.8253V14.0573H133.07C133.252 14.0573 133.406 14.0292 133.561 13.9731C133.715 13.9169 133.842 13.8467 133.954 13.7344C134.066 13.6362 134.15 13.5098 134.207 13.3554C134.263 13.215 134.305 13.0466 134.305 12.8641C134.305 12.5412 134.207 12.2745 133.996 12.092C133.785 11.9095 133.491 11.8113 133.098 11.8113H132.115V11.8253Z" fill="white"/>
<path d="M140.959 17.7773H137.098V10.8848H140.804V11.8534H138.235V13.8046H140.608V14.7732H138.235V16.8087H140.959V17.7773V17.7773Z" fill="white"/>
<path d="M141.871 17.5106V16.3314C141.983 16.4297 142.096 16.5139 142.25 16.5841C142.39 16.6543 142.545 16.7245 142.713 16.7806C142.882 16.8368 143.036 16.8789 143.205 16.9069C143.373 16.935 143.514 16.9491 143.654 16.9491C144.131 16.9491 144.496 16.8648 144.721 16.7104C144.959 16.556 145.072 16.3174 145.072 16.0085C145.072 15.8401 145.03 15.6997 144.959 15.5874C144.875 15.4611 144.777 15.3628 144.637 15.2645C144.496 15.1663 144.328 15.068 144.145 14.9838C143.949 14.8996 143.752 14.8013 143.528 14.703C143.289 14.5767 143.078 14.4504 142.868 14.324C142.671 14.1977 142.489 14.0573 142.348 13.9029C142.194 13.7485 142.082 13.566 141.997 13.3835C141.913 13.187 141.871 12.9623 141.871 12.6956C141.871 12.3728 141.941 12.092 142.096 11.8534C142.236 11.6147 142.433 11.4182 142.671 11.2638C142.91 11.1094 143.177 10.9971 143.485 10.9128C143.794 10.8427 144.103 10.8005 144.412 10.8005C145.128 10.8005 145.661 10.8848 145.984 11.0392V12.1622C145.591 11.8814 145.086 11.7411 144.482 11.7411C144.314 11.7411 144.145 11.7551 143.977 11.7832C143.808 11.8113 143.654 11.8674 143.528 11.9376C143.401 12.0078 143.289 12.1061 143.205 12.2184C143.12 12.3307 143.078 12.471 143.078 12.6395C143.078 12.7939 143.106 12.9202 143.177 13.0325C143.247 13.1448 143.331 13.2431 143.457 13.3414C143.584 13.4396 143.738 13.5239 143.907 13.6081C144.089 13.6923 144.286 13.7906 144.524 13.8888C144.763 14.0152 144.987 14.1415 145.198 14.2819C145.409 14.4223 145.605 14.5767 145.76 14.7451C145.928 14.9136 146.054 15.0961 146.139 15.3067C146.237 15.5032 146.279 15.7418 146.279 15.9945C146.279 16.3454 146.209 16.6402 146.068 16.8789C145.928 17.1175 145.731 17.314 145.493 17.4685C145.254 17.6229 144.973 17.7211 144.665 17.7913C144.356 17.8615 144.033 17.8896 143.682 17.8896C143.57 17.8896 143.429 17.8756 143.261 17.8615C143.092 17.8475 142.924 17.8194 142.741 17.7913C142.559 17.7633 142.405 17.7211 142.236 17.665C142.096 17.6229 141.969 17.5667 141.871 17.5106Z" fill="white"/>
<path d="M148.68 15.2786V17.7773H147.542V10.8848H149.634C150.42 10.8848 151.038 11.0673 151.473 11.4322C151.908 11.7972 152.133 12.3166 152.133 12.9904C152.133 13.6642 151.908 14.2117 151.445 14.6328C150.996 15.054 150.378 15.2645 149.606 15.2645H148.68V15.2786ZM148.68 11.8393V14.3521H149.424C149.915 14.3521 150.28 14.2398 150.547 14.0152C150.799 13.7906 150.926 13.4677 150.926 13.0606C150.926 12.2464 150.448 11.8393 149.508 11.8393H148.68Z" fill="white"/>
<path d="M158.59 14.9979C158.59 16.9352 157.677 17.9038 155.838 17.9038C154.084 17.9038 153.213 16.9773 153.213 15.1102V10.8989H154.35V14.8716C154.35 16.2192 154.87 16.893 155.923 16.893C156.933 16.893 157.439 16.2473 157.439 14.9418V10.8989H158.576V14.9979H158.59Z" fill="white"/>
<path d="M160.204 17.7773V10.8848H162.394C163.054 10.8848 163.587 11.0251 163.98 11.3199C164.373 11.6147 164.57 11.9937 164.57 12.457C164.57 12.85 164.458 13.187 164.233 13.4817C164.008 13.7765 163.699 13.9731 163.32 14.0994V14.1134C163.798 14.1696 164.177 14.338 164.458 14.6328C164.738 14.9276 164.879 15.3207 164.879 15.7839C164.879 16.3735 164.64 16.8508 164.177 17.2158C163.714 17.5808 163.124 17.7633 162.422 17.7633H160.204V17.7773ZM161.341 11.8113V13.7765H162.085C162.478 13.7765 162.787 13.6783 163.026 13.4958C163.25 13.3133 163.363 13.0466 163.363 12.6956C163.363 12.106 162.97 11.8113 162.183 11.8113H161.341ZM161.341 14.689V16.8648H162.31C162.731 16.8648 163.068 16.7666 163.292 16.57C163.531 16.3735 163.643 16.1068 163.643 15.7559C163.643 15.0399 163.152 14.689 162.155 14.689H161.341Z" fill="white"/>
<path d="M169.96 17.7773H166.142V10.8848H167.279V16.8087H169.946V17.7773H169.96Z" fill="white"/>
<path d="M171.519 10.2531C171.364 10.2531 171.224 10.197 171.098 10.0987C170.985 9.98642 170.929 9.86008 170.929 9.70567C170.929 9.55125 170.985 9.42492 171.098 9.31261C171.21 9.20031 171.35 9.1582 171.519 9.1582C171.687 9.1582 171.828 9.21435 171.94 9.31261C172.052 9.41088 172.108 9.55125 172.108 9.70567C172.108 9.86008 172.052 9.98642 171.94 10.0987C171.828 10.211 171.687 10.2531 171.519 10.2531ZM172.122 17.7774H170.943V10.8848H172.122V17.7774Z" fill="white"/>
<path d="M179.029 17.7774H177.541L175.14 14.633C175.056 14.5207 175 14.4364 174.972 14.3943H174.958V17.7915H173.821V10.8989H174.958V14.1416H174.972C175.014 14.0715 175.07 13.9872 175.14 13.903L177.457 10.8989H178.832L176.123 14.1978L179.029 17.7774Z" fill="white"/>
<path d="M185.486 17.7773H184.237L183.619 16.0226H180.91L180.32 17.7773H179.071L181.654 10.8848H182.945L185.486 17.7773ZM183.31 15.0961L182.356 12.3447C182.328 12.2605 182.299 12.106 182.271 11.9095H182.257C182.229 12.092 182.201 12.2324 182.159 12.3447L181.219 15.0961H183.31Z" fill="white"/>
<path d="M186.118 17.5106V16.3314C186.23 16.4297 186.343 16.5139 186.497 16.5841C186.638 16.6543 186.792 16.7245 186.96 16.7806C187.129 16.8368 187.283 16.8789 187.452 16.9069C187.62 16.935 187.761 16.9491 187.901 16.9491C188.378 16.9491 188.743 16.8648 188.968 16.7104C189.206 16.556 189.319 16.3174 189.319 16.0085C189.319 15.8401 189.277 15.6997 189.206 15.5874C189.122 15.4611 189.024 15.3628 188.884 15.2645C188.743 15.1663 188.575 15.068 188.392 14.9838C188.196 14.8996 187.999 14.8013 187.775 14.703C187.536 14.5767 187.325 14.4504 187.115 14.324C186.918 14.1977 186.736 14.0573 186.595 13.9029C186.441 13.7485 186.329 13.566 186.245 13.3835C186.16 13.187 186.118 12.9623 186.118 12.6956C186.118 12.3728 186.188 12.092 186.343 11.8534C186.483 11.6147 186.68 11.4182 186.918 11.2638C187.157 11.1094 187.424 10.9971 187.733 10.9128C188.041 10.8427 188.35 10.8005 188.659 10.8005C189.375 10.8005 189.908 10.8848 190.231 11.0392V12.1622C189.838 11.8814 189.333 11.7411 188.729 11.7411C188.561 11.7411 188.392 11.7551 188.224 11.7832C188.055 11.8113 187.901 11.8674 187.775 11.9376C187.648 12.0078 187.536 12.1061 187.452 12.2184C187.368 12.3307 187.325 12.471 187.325 12.6395C187.325 12.7939 187.353 12.9202 187.424 13.0325C187.494 13.1448 187.578 13.2431 187.704 13.3414C187.831 13.4396 187.985 13.5239 188.154 13.6081C188.336 13.6923 188.533 13.7906 188.771 13.8888C189.01 14.0152 189.235 14.1415 189.445 14.2819C189.656 14.4223 189.852 14.5767 190.007 14.7451C190.175 14.9136 190.301 15.0961 190.386 15.3067C190.484 15.5032 190.526 15.7418 190.526 15.9945C190.526 16.3454 190.456 16.6402 190.315 16.8789C190.175 17.1175 189.979 17.314 189.74 17.4685C189.501 17.6229 189.221 17.7211 188.912 17.7913C188.603 17.8615 188.28 17.8896 187.929 17.8896C187.817 17.8896 187.676 17.8756 187.508 17.8615C187.339 17.8475 187.171 17.8194 186.989 17.7913C186.806 17.7633 186.652 17.7211 186.483 17.665C186.343 17.6229 186.216 17.5667 186.118 17.5106Z" fill="white"/>
<path d="M192.955 17.7773H191.775V10.8848H192.955V17.7773Z" fill="white"/>
<path d="M70.1102 30.4113H68.7766L67.6817 28.5724C67.5834 28.4039 67.4852 28.2635 67.3869 28.1372C67.2886 28.0109 67.1904 27.9126 67.0921 27.8424C66.9938 27.7722 66.8815 27.7161 66.7692 27.674C66.6569 27.6319 66.5306 27.6178 66.3762 27.6178H65.9129V30.4113H64.7759V23.5188H67.0359C67.3588 23.5188 67.6536 23.5609 67.9344 23.6311C68.2011 23.7013 68.4397 23.8276 68.6503 23.982C68.8468 24.1365 69.0153 24.333 69.1276 24.5576C69.2399 24.7962 69.296 25.063 69.296 25.3718C69.296 25.6104 69.2539 25.835 69.1837 26.0456C69.1135 26.2421 69.0153 26.4246 68.8749 26.5931C68.7486 26.7475 68.5801 26.8879 68.3976 27.0002C68.2151 27.1125 68.0046 27.1967 67.7659 27.2528V27.2669C67.8923 27.3371 68.0046 27.4213 68.0888 27.5055C68.187 27.5897 68.2713 27.674 68.3555 27.7722C68.4397 27.8565 68.524 27.9688 68.6082 28.0811C68.6924 28.1934 68.7766 28.3337 68.8749 28.4741L70.1102 30.4113ZM65.927 24.4593V26.6913H66.8815C67.064 26.6913 67.2184 26.6633 67.3729 26.6071C67.5273 26.5509 67.6536 26.4808 67.7659 26.3685C67.8782 26.2702 67.9624 26.1439 68.0186 25.9894C68.0747 25.8491 68.1169 25.6806 68.1169 25.4981C68.1169 25.1752 68.0186 24.9085 67.808 24.726C67.5975 24.5435 67.3027 24.4453 66.9096 24.4453H65.927V24.4593Z" fill="white"/>
<path d="M70.4609 26.4808H75.697C75.6409 25.835 75.4022 25.3297 74.9811 24.9506C74.56 24.5716 74.0125 24.3891 73.3667 24.3891C72.6087 24.3891 71.963 24.5857 71.4155 24.9647V23.9118C71.991 23.5749 72.6789 23.4065 73.4931 23.4065C74.56 23.4065 75.4022 23.7153 76.0058 24.347C76.6095 24.9647 76.9183 25.835 76.9183 26.93C76.9183 27.9688 76.6095 28.8251 76.0058 29.5129C75.4022 30.1867 74.588 30.5377 73.5773 30.5377C72.5806 30.5377 71.8086 30.2008 71.2611 29.5129C70.7136 28.8251 70.4609 27.8143 70.4609 26.4808ZM75.697 27.4353H71.6963C71.7103 28.0811 71.8928 28.6004 72.2297 28.9795C72.5666 29.3585 73.0298 29.555 73.6194 29.555C74.209 29.555 74.6863 29.3585 75.0653 28.9795C75.4443 28.6004 75.6409 28.0811 75.697 27.4353Z" fill="white"/>
<path d="M81.0173 30.5236C80.5259 30.5236 80.0767 30.4394 79.6696 30.2709C79.2625 30.1025 78.9256 29.8638 78.6308 29.555C78.3501 29.2462 78.1255 28.8812 77.9711 28.4601C77.8166 28.0389 77.7324 27.5617 77.7324 27.0423C77.7324 26.4948 77.8166 25.9894 77.9711 25.5402C78.1255 25.091 78.3501 24.712 78.6449 24.3891C78.9397 24.0663 79.2906 23.8276 79.7117 23.6592C80.1329 23.4907 80.5961 23.4065 81.1155 23.4065C81.5928 23.4065 82.028 23.4907 82.4351 23.6592C82.8422 23.8276 83.165 24.0663 83.4598 24.3751C83.7546 24.6839 83.9652 25.0489 84.1196 25.47C84.274 25.8912 84.3582 26.3684 84.3582 26.8738C84.3582 27.5476 84.2459 28.1513 84.0213 28.6566C83.7967 29.162 83.4739 29.5831 83.0668 29.8919L85.0601 31.3378H83.3194L82.0841 30.3832C81.9157 30.4254 81.7472 30.4675 81.5788 30.4955C81.3963 30.5236 81.2138 30.5236 81.0173 30.5236ZM81.0734 24.4172C80.7646 24.4172 80.4698 24.4734 80.2171 24.5997C79.9504 24.726 79.7258 24.8945 79.5433 25.1191C79.3608 25.3437 79.2064 25.6104 79.1081 25.9333C79.0099 26.2421 78.9537 26.5931 78.9537 26.9861C78.9537 27.3651 79.0099 27.7161 79.1081 28.0249C79.2064 28.3337 79.3468 28.6005 79.5292 28.8251C79.7117 29.0497 79.9363 29.2181 80.189 29.3444C80.4417 29.4708 80.7225 29.5269 81.0453 29.5269C81.3682 29.5269 81.677 29.4708 81.9297 29.3585C82.1964 29.2462 82.421 29.0777 82.6035 28.8672C82.786 28.6566 82.9264 28.3899 83.0246 28.067C83.1229 27.7441 83.1791 27.3932 83.1791 27.0001C83.1791 26.5931 83.1369 26.2281 83.0387 25.9052C82.9404 25.5823 82.8 25.3156 82.6316 25.091C82.4491 24.8664 82.2385 24.698 81.9718 24.5857C81.6911 24.4734 81.3963 24.4172 81.0734 24.4172Z" fill="white"/>
<path d="M85.1587 26.4808H90.3948C90.3386 25.835 90.1 25.3297 89.6788 24.9506C89.2577 24.5716 88.7102 24.3891 88.0645 24.3891C87.3065 24.3891 86.6607 24.5857 86.1133 24.9647V23.9118C86.6888 23.5749 87.3766 23.4065 88.1908 23.4065C89.2577 23.4065 90.1 23.7153 90.7036 24.347C91.3072 24.9647 91.616 25.835 91.616 26.93C91.616 27.9688 91.3072 28.8251 90.7036 29.5129C90.1 30.1867 89.2858 30.5377 88.2751 30.5377C87.2784 30.5377 86.5063 30.2008 85.9588 29.5129C85.4114 28.8251 85.1587 27.8143 85.1587 26.4808ZM90.3948 27.4353H86.394C86.408 28.0811 86.5905 28.6004 86.9274 28.9795C87.2643 29.3585 87.7276 29.555 88.3172 29.555C88.9068 29.555 89.384 29.3585 89.7631 28.9795C90.1421 28.6004 90.3386 28.0811 90.3948 27.4353Z" fill="white"/>
<path d="M100.277 30.4112H99.14V25.9612C99.14 25.5963 99.1681 25.1471 99.2102 24.6277H99.1961C99.1259 24.9224 99.0698 25.1471 99.0136 25.2734L96.9641 30.4252H96.178L94.1145 25.3155C94.0583 25.1611 94.0022 24.9365 93.932 24.6277H93.9179C93.946 24.9084 93.9601 25.3576 93.9601 25.9753V30.4252H92.9072V23.5327H94.5216L96.3324 28.1231C96.4728 28.474 96.557 28.7407 96.5992 28.9092H96.6272C96.7395 28.5442 96.8378 28.2775 96.922 28.109L98.761 23.5468H100.319V30.4112H100.277Z" fill="white"/>
<path d="M101.653 30.1446V28.9654C101.765 29.0637 101.877 29.1479 102.032 29.2181C102.172 29.2883 102.327 29.3585 102.495 29.4146C102.664 29.4708 102.818 29.5129 102.986 29.541C103.155 29.5691 103.295 29.5831 103.436 29.5831C103.913 29.5831 104.278 29.4989 104.502 29.3445C104.727 29.19 104.853 28.9514 104.853 28.6426C104.853 28.4741 104.811 28.3337 104.741 28.2214C104.657 28.0951 104.559 27.9968 104.418 27.8986C104.278 27.8003 104.109 27.702 103.927 27.6178C103.73 27.5196 103.534 27.4353 103.309 27.3371C103.071 27.2107 102.86 27.0844 102.65 26.958C102.453 26.8317 102.27 26.6913 102.13 26.5369C101.976 26.3825 101.863 26.2 101.779 26.0175C101.695 25.821 101.653 25.5964 101.653 25.3297C101.653 25.0068 101.723 24.726 101.877 24.4874C102.018 24.2488 102.214 24.0522 102.453 23.8978C102.692 23.7434 102.958 23.6311 103.267 23.5469C103.576 23.4767 103.885 23.4346 104.194 23.4346C104.91 23.4346 105.443 23.5188 105.766 23.6732V24.7962C105.373 24.5155 104.867 24.3751 104.264 24.3751C104.095 24.3751 103.927 24.3891 103.758 24.4172C103.59 24.4453 103.436 24.5014 103.309 24.5716C103.183 24.6418 103.071 24.7401 102.986 24.8524C102.902 24.9647 102.86 25.1051 102.86 25.2735C102.86 25.4279 102.888 25.5543 102.958 25.6666C103.029 25.7789 103.113 25.8771 103.239 25.9754C103.365 26.0737 103.52 26.1579 103.688 26.2421C103.871 26.3263 104.067 26.4246 104.306 26.5229C104.545 26.6492 104.769 26.7756 104.98 26.9159C105.19 27.0563 105.387 27.2107 105.541 27.3792C105.71 27.5476 105.836 27.7301 105.92 27.9407C106.019 28.1372 106.061 28.3759 106.061 28.6285C106.061 28.9795 105.99 29.2743 105.85 29.5129C105.71 29.7516 105.513 29.9481 105.275 30.1025C105.036 30.2569 104.755 30.3552 104.446 30.4254C104.138 30.4956 103.815 30.5236 103.464 30.5236C103.351 30.5236 103.211 30.5096 103.043 30.4956C102.874 30.4815 102.706 30.4534 102.523 30.4254C102.341 30.3973 102.186 30.3552 102.018 30.299C101.877 30.2569 101.751 30.2008 101.653 30.1446Z" fill="white"/>
<path d="M112.981 30.4113H111.732L111.114 28.6566H108.405L107.815 30.4113H106.566L109.149 23.5188H110.44L112.981 30.4113ZM110.805 27.7301L109.851 24.9787C109.823 24.8945 109.795 24.7401 109.767 24.5436H109.752C109.724 24.726 109.696 24.8664 109.654 24.9787L108.714 27.7301H110.805Z" fill="white"/>
<path d="M117.74 30.4113H113.922V23.5188H115.059V29.4427H117.726V30.4113H117.74Z" fill="white"/>
<path d="M122.008 22.8872C121.853 22.8872 121.713 22.831 121.586 22.7328C121.474 22.6205 121.418 22.4941 121.418 22.3397C121.418 22.1853 121.474 22.0589 121.586 21.9466C121.699 21.8343 121.839 21.7922 122.008 21.7922C122.176 21.7922 122.316 21.8484 122.429 21.9466C122.541 22.0449 122.597 22.1853 122.597 22.3397C122.597 22.4941 122.541 22.6205 122.429 22.7328C122.302 22.8451 122.162 22.8872 122.008 22.8872ZM122.611 30.4114H121.432V23.5189H122.611V30.4114Z" fill="white"/>
<path d="M130.149 30.4113H128.9L125.615 25.3437C125.531 25.2174 125.461 25.077 125.405 24.9506H125.376C125.405 25.091 125.419 25.4139 125.419 25.8912V30.4113H124.31V23.5188H125.643L128.816 28.4601C128.956 28.6706 129.04 28.811 129.068 28.8812H129.082C129.054 28.6987 129.04 28.3899 129.04 27.9547V23.5188H130.135V30.4113H130.149Z" fill="white"/>
<path d="M137.056 30.4112H135.568L133.168 27.2668C133.083 27.1545 133.027 27.0702 132.999 27.0281H132.985V30.4252H131.848V23.5327H132.985V26.7754H132.999C133.041 26.7052 133.098 26.621 133.168 26.5368L135.484 23.5327H136.86L134.15 26.8316L137.056 30.4112Z" fill="white"/>
<path d="M138.418 22.8872C138.263 22.8872 138.123 22.831 137.997 22.7328C137.884 22.6205 137.828 22.4941 137.828 22.3397C137.828 22.1853 137.884 22.0589 137.997 21.9466C138.109 21.8343 138.249 21.7922 138.418 21.7922C138.586 21.7922 138.727 21.8484 138.839 21.9466C138.951 22.0449 139.007 22.1853 139.007 22.3397C139.007 22.4941 138.951 22.6205 138.839 22.7328C138.727 22.8451 138.586 22.8872 138.418 22.8872ZM139.035 30.4114H137.856V23.5189H139.035V30.4114Z" fill="white"/>
<path d="M140.411 30.1446V28.9654C140.523 29.0637 140.636 29.1479 140.79 29.2181C140.931 29.2883 141.085 29.3585 141.253 29.4146C141.422 29.4708 141.576 29.5129 141.745 29.541C141.913 29.5691 142.054 29.5831 142.194 29.5831C142.671 29.5831 143.036 29.4989 143.261 29.3445C143.485 29.19 143.612 28.9514 143.612 28.6426C143.612 28.4741 143.57 28.3337 143.499 28.2214C143.415 28.0951 143.317 27.9968 143.177 27.8986C143.036 27.8003 142.868 27.702 142.685 27.6178C142.489 27.5196 142.292 27.4353 142.068 27.3371C141.829 27.2107 141.618 27.0844 141.408 26.958C141.211 26.8317 141.029 26.6913 140.888 26.5369C140.734 26.3825 140.622 26.2 140.537 26.0175C140.453 25.821 140.411 25.5964 140.411 25.3297C140.411 25.0068 140.481 24.726 140.636 24.4874C140.776 24.2488 140.973 24.0522 141.211 23.8978C141.45 23.7434 141.717 23.6311 142.025 23.5469C142.334 23.4767 142.643 23.4346 142.952 23.4346C143.668 23.4346 144.201 23.5188 144.524 23.6732V24.7962C144.131 24.5155 143.626 24.3751 143.022 24.3751C142.854 24.3751 142.685 24.3891 142.517 24.4172C142.348 24.4453 142.194 24.5014 142.068 24.5716C141.941 24.6418 141.829 24.7401 141.745 24.8524C141.66 24.9647 141.618 25.1051 141.618 25.2735C141.618 25.4279 141.646 25.5543 141.717 25.6666C141.787 25.7789 141.871 25.8771 141.997 25.9754C142.124 26.0737 142.278 26.1579 142.447 26.2421C142.629 26.3263 142.826 26.4246 143.064 26.5229C143.303 26.6492 143.528 26.7756 143.738 26.9159C143.949 27.0563 144.145 27.2107 144.3 27.3792C144.468 27.5476 144.594 27.7301 144.679 27.9407C144.777 28.1372 144.819 28.3759 144.819 28.6285C144.819 28.9795 144.749 29.2743 144.608 29.5129C144.468 29.7516 144.272 29.9481 144.033 30.1025C143.794 30.2569 143.513 30.3552 143.205 30.4254C142.896 30.4956 142.573 30.5236 142.222 30.5236C142.11 30.5236 141.969 30.5096 141.801 30.4956C141.632 30.4815 141.464 30.4534 141.281 30.4254C141.099 30.3973 140.945 30.3552 140.776 30.299C140.636 30.2569 140.509 30.2008 140.411 30.1446ZM143.668 31.6045C143.668 32.2222 143.205 32.531 142.278 32.531C142.124 32.531 141.997 32.531 141.885 32.517V31.9836C142.025 31.9976 142.138 32.0116 142.222 32.0116C142.643 32.0116 142.868 31.8853 142.868 31.6186C142.868 31.3799 142.671 31.2676 142.292 31.2676C142.264 31.2676 142.194 31.2676 142.11 31.2817V30.4113H142.769V30.8605C143.05 30.8605 143.275 30.9307 143.429 31.0571C143.584 31.1834 143.668 31.3659 143.668 31.6045Z" fill="white"/>
<path d="M151.739 30.4113H150.49L149.872 28.6566H147.149L146.559 30.4113H145.31L147.893 23.5188H149.184L151.739 30.4113ZM149.563 27.7301L148.609 24.9787C148.581 24.8945 148.553 24.7401 148.525 24.5436H148.511C148.483 24.726 148.455 24.8664 148.412 24.9787L147.472 27.7301H149.563Z" fill="white"/>
<path d="M156.4 24.5014H153.831V26.565H156.203V27.5336H153.831V30.4113H152.694V23.5188H156.414V24.5014H156.4Z" fill="white"/>
<path d="M165.721 23.5328L163.25 30.4254H161.973L159.544 23.5328H160.794L162.492 28.7549C162.549 28.9233 162.591 29.1198 162.619 29.3304H162.633C162.661 29.1479 162.703 28.9514 162.773 28.7408L164.514 23.5188H165.721V23.5328Z" fill="white"/>
<path d="M166.185 26.4808H171.421C171.364 25.835 171.126 25.3297 170.705 24.9506C170.284 24.5716 169.736 24.3891 169.09 24.3891C168.332 24.3891 167.687 24.5857 167.139 24.9647V23.9118C167.715 23.5749 168.403 23.4065 169.217 23.4065C170.284 23.4065 171.126 23.7153 171.729 24.347C172.333 24.9647 172.642 25.835 172.642 26.93C172.642 27.9688 172.333 28.8251 171.729 29.5129C171.126 30.1867 170.312 30.5377 169.301 30.5377C168.304 30.5377 167.532 30.2008 166.985 29.5129C166.437 28.8251 166.185 27.8143 166.185 26.4808ZM171.421 27.4353H167.42C167.434 28.0811 167.616 28.6004 167.953 28.9795C168.29 29.3585 168.753 29.555 169.343 29.555C169.933 29.555 170.41 29.3585 170.789 28.9795C171.168 28.6004 171.364 28.0811 171.421 27.4353Z" fill="white"/>
<path d="M70.6297 43.0454H69.3804L66.0955 37.9777C66.0113 37.8514 65.9411 37.711 65.885 37.5847H65.8569C65.885 37.7251 65.899 38.0479 65.899 38.5252V43.0454H64.79V36.1528H66.1236L69.2962 41.0941C69.4365 41.3047 69.5208 41.4451 69.5488 41.5153H69.5629C69.5348 41.3328 69.5208 41.0239 69.5208 40.5888V36.1528H70.6157V43.0454H70.6297Z" fill="white"/>
<path d="M71.8789 39.1148H77.115C77.0588 38.4691 76.8202 37.9637 76.3991 37.5847C75.9779 37.2057 75.4305 37.0232 74.7847 37.0232C74.0267 37.0232 73.3809 37.2197 72.8335 37.5987V36.5459C73.409 36.209 74.0969 36.0405 74.9111 36.0405C75.9779 36.0405 76.8202 36.3494 77.4238 36.981C78.0274 37.5987 78.3363 38.4691 78.3363 39.564C78.3363 40.6028 78.0274 41.4591 77.4238 42.1469C76.8202 42.8208 76.006 43.1717 74.9953 43.1717C73.9986 43.1717 73.2265 42.8348 72.6791 42.1469C72.1316 41.4591 71.8789 40.4484 71.8789 39.1148ZM77.115 40.0693H73.1142C73.1283 40.7151 73.3108 41.2345 73.6477 41.6135C73.9846 41.9925 74.4478 42.189 75.0374 42.189C75.627 42.189 76.1043 41.9925 76.4833 41.6135C76.8623 41.2345 77.0588 40.7151 77.115 40.0693Z" fill="white"/>
<path d="M82.4352 43.1576C81.9439 43.1576 81.4947 43.0734 81.0876 42.905C80.6805 42.7365 80.3436 42.4979 80.0488 42.189C79.7681 41.8802 79.5434 41.5152 79.389 41.0941C79.2346 40.673 79.1504 40.1957 79.1504 39.6763C79.1504 39.1288 79.2346 38.6235 79.389 38.1743C79.5434 37.725 79.7681 37.346 80.0628 37.0232C80.3576 36.7003 80.7086 36.4616 81.1297 36.2932C81.5508 36.1247 82.0141 36.0405 82.5335 36.0405C83.0108 36.0405 83.4459 36.1247 83.853 36.2932C84.2461 36.4616 84.583 36.7003 84.8778 37.0091C85.1726 37.318 85.3831 37.6829 85.5376 38.1041C85.692 38.5252 85.7762 39.0025 85.7762 39.5078C85.7762 40.1817 85.6639 40.7853 85.4393 41.2906C85.2147 41.796 84.8918 42.2171 84.4847 42.526L86.4781 43.9718H84.7374L83.5021 43.0173C83.3336 43.0594 83.1652 43.1015 82.9967 43.1296C82.8142 43.1577 82.6318 43.1576 82.4352 43.1576ZM82.4914 37.0512C82.1825 37.0512 81.8877 37.1074 81.6351 37.2337C81.3684 37.3601 81.1438 37.5285 80.9613 37.7531C80.7788 37.9777 80.6244 38.2445 80.5261 38.5673C80.4278 38.8761 80.3717 39.2271 80.3717 39.6201C80.3717 39.9992 80.4278 40.3501 80.5261 40.6589C80.6244 40.9678 80.7647 41.2345 80.9472 41.4591C81.1297 41.6837 81.3543 41.8521 81.607 41.9785C81.8597 42.1048 82.1404 42.161 82.4633 42.161C82.7862 42.161 83.095 42.1048 83.3477 41.9925C83.6144 41.8802 83.839 41.7118 84.0215 41.5012C84.204 41.2906 84.3444 41.0239 84.4426 40.701C84.5409 40.3782 84.597 40.0272 84.597 39.6342C84.597 39.2271 84.5549 38.8621 84.4567 38.5392C84.3584 38.2164 84.218 37.9497 84.0496 37.7251C83.8811 37.5005 83.6565 37.332 83.3898 37.2197C83.1231 37.1074 82.8142 37.0512 82.4914 37.0512Z" fill="white"/>
<path d="M90.8437 43.0454H87.0254V36.1528H88.1624V42.0768H90.8296V43.0454H90.8437Z" fill="white"/>
<path d="M92.4162 35.521C92.2618 35.521 92.1214 35.4648 91.9951 35.3665C91.8828 35.2542 91.8267 35.1279 91.8267 34.9735C91.8267 34.8191 91.8828 34.6927 91.9951 34.5804C92.1074 34.4681 92.2478 34.426 92.4162 34.426C92.5847 34.426 92.7251 34.4822 92.8374 34.5804C92.9497 34.6787 93.0058 34.8191 93.0058 34.9735C93.0058 35.1279 92.9497 35.2542 92.8374 35.3665C92.711 35.4788 92.5707 35.521 92.4162 35.521ZM93.0199 43.0452H91.8407V36.1527H93.0199V43.0452Z" fill="white"/>
<path d="M99.5049 36.1669L97.2448 40.5466V43.0454H96.1077V40.5607L93.9038 36.1528H95.2093L96.5569 39.1008C96.571 39.1429 96.6271 39.2692 96.6973 39.4938H96.7114C96.7394 39.3956 96.7956 39.2552 96.8658 39.1008L98.2836 36.1528H99.5049V36.1669Z" fill="white"/>
<path d="M105.19 36.1669L102.93 40.5466V43.0454H101.793V40.5607L99.5894 36.1528H100.895L102.242 39.1008C102.257 39.1429 102.313 39.2692 102.383 39.4938H102.397C102.425 39.3956 102.481 39.2552 102.551 39.1008L103.969 36.1528H105.19V36.1669Z" fill="white"/>
<path d="M110.974 43.0454H109.724L109.107 41.2907H106.398L105.808 43.0454H104.559L107.142 36.1528H108.433L110.974 43.0454ZM108.798 40.3642L107.843 37.6128C107.815 37.5285 107.787 37.3741 107.759 37.1776H107.745C107.717 37.3601 107.689 37.5005 107.647 37.6128L106.706 40.3642H108.798Z" fill="white"/>
<path d="M115.634 37.1353H113.655V43.0452H112.518V37.1353H110.539V36.1667H115.634V37.1353V37.1353Z" fill="white"/>
<path d="M125.194 43.0454H123.945L120.66 37.9777C120.576 37.8514 120.506 37.711 120.449 37.5847H120.421C120.449 37.7251 120.463 38.0479 120.463 38.5252V43.0454H119.354V36.1528H120.688L123.861 41.0941C124.001 41.3047 124.085 41.4451 124.113 41.5153H124.127C124.099 41.3328 124.085 41.0239 124.085 40.5888V36.1528H125.18V43.0454H125.194Z" fill="white"/>
<path d="M132.55 43.0454H131.301L130.683 41.2907H127.974L127.384 43.0454H126.135L128.718 36.1528H130.009L132.55 43.0454ZM130.374 40.3642L129.42 37.6128C129.392 37.5285 129.363 37.3741 129.335 37.1776H129.321C129.293 37.3601 129.265 37.5005 129.223 37.6128L128.283 40.3642H130.374Z" fill="white"/>
<path d="M138.404 36.6581L134.628 42.0766H138.348V43.0452H133.027V42.5258L136.818 37.1353H133.322V36.1667H138.404V36.6581V36.6581Z" fill="white"/>
<path d="M140.046 35.521C139.892 35.521 139.751 35.4648 139.625 35.3665C139.513 35.2542 139.457 35.1279 139.457 34.9735C139.457 34.8191 139.513 34.6927 139.625 34.5804C139.737 34.4681 139.878 34.426 140.046 34.426C140.215 34.426 140.355 34.4822 140.467 34.5804C140.58 34.6787 140.636 34.8191 140.636 34.9735C140.636 35.1279 140.58 35.2542 140.467 35.3665C140.355 35.4788 140.215 35.521 140.046 35.521ZM140.65 43.0452H139.471V36.1527H140.65V43.0452Z" fill="white"/>
<path d="M147.668 43.0454H146.335L145.24 41.2064C145.142 41.038 145.043 40.8976 144.945 40.7712C144.847 40.6449 144.748 40.5466 144.65 40.4765C144.552 40.4063 144.44 40.3501 144.327 40.308C144.215 40.2659 144.089 40.2519 143.934 40.2519H143.471V43.0454H142.334V36.1528H144.594C144.917 36.1528 145.212 36.195 145.492 36.2651C145.759 36.3353 145.998 36.4617 146.208 36.6161C146.405 36.7705 146.573 36.967 146.686 37.1916C146.798 37.4303 146.854 37.697 146.854 38.0058C146.854 38.2445 146.812 38.4691 146.742 38.6796C146.672 38.8762 146.573 39.0586 146.433 39.2271C146.307 39.3815 146.138 39.5219 145.956 39.6342C145.773 39.7465 145.563 39.8307 145.324 39.8869V39.9009C145.45 39.9711 145.563 40.0553 145.647 40.1396C145.745 40.2238 145.829 40.308 145.914 40.4063C145.998 40.4905 146.082 40.6028 146.166 40.7151C146.251 40.8274 146.335 40.9678 146.433 41.1082L147.668 43.0454ZM143.485 37.0934V39.3254H144.44C144.622 39.3254 144.777 39.2973 144.931 39.2411C145.085 39.185 145.212 39.1148 145.324 39.0025C145.436 38.9042 145.521 38.7779 145.577 38.6235C145.633 38.4831 145.675 38.3147 145.675 38.1322C145.675 37.8093 145.577 37.5426 145.366 37.3601C145.156 37.1776 144.861 37.0793 144.468 37.0793H143.485V37.0934Z" fill="white"/>
<path d="M152.287 43.0454H148.469V36.1528H149.606V42.0768H152.273V43.0454H152.287Z" fill="white"/>
<path d="M153.845 35.521C153.691 35.521 153.55 35.4648 153.424 35.3665C153.312 35.2542 153.255 35.1279 153.255 34.9735C153.255 34.8191 153.312 34.6927 153.424 34.5804C153.536 34.4681 153.676 34.426 153.845 34.426C154.013 34.426 154.154 34.4822 154.266 34.5804C154.378 34.6787 154.435 34.8191 154.435 34.9735C154.435 35.1279 154.378 35.2542 154.266 35.3665C154.154 35.4788 154.013 35.521 153.845 35.521ZM154.449 43.0452H153.269V36.1527H154.449V43.0452Z" fill="white"/>
<path d="M160.948 36.1669L158.688 40.5466V43.0454H157.551V40.5607L155.347 36.1528H156.653L158 39.1008C158.014 39.1429 158.07 39.2692 158.141 39.4938H158.155C158.183 39.3956 158.239 39.2552 158.309 39.1008L159.727 36.1528H160.948V36.1669Z" fill="white"/>
<path d="M162.394 35.521C162.24 35.521 162.099 35.4648 161.973 35.3665C161.861 35.2542 161.805 35.1279 161.805 34.9735C161.805 34.8191 161.861 34.6927 161.973 34.5804C162.085 34.4681 162.226 34.426 162.394 34.426C162.563 34.426 162.703 34.4822 162.815 34.5804C162.928 34.6787 162.984 34.8191 162.984 34.9735C162.984 35.1279 162.928 35.2542 162.815 35.3665C162.689 35.4788 162.549 35.521 162.394 35.521ZM162.998 43.0452H161.819V36.1527H162.998V43.0452Z" fill="white"/>
</svg>
